HIERARCHY
ROOT Hips
{
	OFFSET 0.000000 0.000000 0.000000
	CHANNELS 6 Xposition Yposition Zposition Zrotation Yrotation Xrotation 
	JOINT LHipJoint
	{
		OFFSET 0.000000 0.000000 0.000000
		CHANNELS 3 Zrotation Yrotation Xrotation
		JOINT LeftUpLeg
		{
			OFFSET 1.363060 -1.794630 0.839290
			CHANNELS 3 Zrotation Yrotation Xrotation
			JOINT LeftLeg
			{
				OFFSET 2.448110 -6.726130 0.000000
				CHANNELS 3 Zrotation Yrotation Xrotation
				JOINT LeftFoot
				{
					OFFSET 2.562200 -7.039590 0.000000
					CHANNELS 3 Zrotation Yrotation Xrotation
					JOINT LeftToeBase
					{
						OFFSET 0.157640 -0.433110 2.322550
						CHANNELS 3 Zrotation Yrotation Xrotation
						End Site
						{
							OFFSET 0.000000 0.000000 0.000000
						}
					}
				}
			}
		}
	}
	JOINT RHipJoint
	{
		OFFSET 0.000000 0.000000 0.000000
		CHANNELS 3 Zrotation Yrotation Xrotation
		JOINT RightUpLeg
		{
			OFFSET -1.305520 -1.794630 0.839290
			CHANNELS 3 Zrotation Yrotation Xrotation
			JOINT RightLeg
			{
				OFFSET -2.542530 -6.985550 0.000000
				CHANNELS 3 Zrotation Yrotation Xrotation
				JOINT RightFoot
				{
					OFFSET -2.568260 -7.056230 0.000000
					CHANNELS 3 Zrotation Yrotation Xrotation
					JOINT RightToeBase
					{
						OFFSET -0.164730 -0.452590 2.363150
						CHANNELS 3 Zrotation Yrotation Xrotation
						End Site
						{
							OFFSET 0.000000 0.000000 0.000000
						}
					}
				}
			}
		}
	}
	JOINT LowerBack
	{
		OFFSET 0.000000 0.000000 0.000000
		CHANNELS 3 Zrotation Yrotation Xrotation
		JOINT Spine
		{
			OFFSET 0.028270 2.035590 -0.193380
			CHANNELS 3 Zrotation Yrotation Xrotation
			JOINT Spine1
			{
				OFFSET 0.056720 2.048850 -0.042750
				CHANNELS 3 Zrotation Yrotation Xrotation
				JOINT Neck
				{
					OFFSET 0.000000 0.000000 0.000000
					CHANNELS 3 Zrotation Yrotation Xrotation
					JOINT Neck1
					{
						OFFSET -0.054170 1.746240 0.172020
						CHANNELS 3 Zrotation Yrotation Xrotation
						JOINT Head
						{
							OFFSET 0.104070 1.761360 -0.123970
							CHANNELS 3 Zrotation Yrotation Xrotation
							End Site
							{
								OFFSET 0.000000 0.000000 0.000000
							}
						}
					}
				}
				JOINT LeftShoulder
				{
					OFFSET 0.000000 0.000000 0.000000
					CHANNELS 3 Zrotation Yrotation Xrotation
					JOINT LeftArm
					{
						OFFSET 3.362410 1.200890 -0.311210
						CHANNELS 3 Zrotation Yrotation Xrotation
						JOINT LeftForeArm
						{
							OFFSET 4.983000 -0.000000 -0.000000
							CHANNELS 3 Zrotation Yrotation Xrotation
							JOINT LeftHand
							{
								OFFSET 3.483560 -0.000000 -0.000000
								CHANNELS 3 Zrotation Yrotation Xrotation
								JOINT LeftFingerBase
								{
									OFFSET 0.000000 0.000000 0.000000
									CHANNELS 3 Zrotation Yrotation Xrotation
									JOINT LeftHandIndex1
									{
										OFFSET 0.715260 -0.000000 -0.000000
										CHANNELS 3 Zrotation Yrotation Xrotation
										End Site
										{
											OFFSET 0.000000 0.000000 0.000000
										}
									}
								}
								JOINT LThumb
								{
									OFFSET 0.000000 0.000000 0.000000
									CHANNELS 3 Zrotation Yrotation Xrotation
									End Site
									{
										OFFSET 0.000000 0.000000 0.000000
									}
								}
							}
						}
					}
				}
				JOINT RightShoulder
				{
					OFFSET 0.000000 0.000000 0.000000
					CHANNELS 3 Zrotation Yrotation Xrotation
					JOINT RightArm
					{
						OFFSET -3.136600 1.374050 -0.404650
						CHANNELS 3 Zrotation Yrotation Xrotation
						JOINT RightForeArm
						{
							OFFSET -5.241900 -0.000000 -0.000000
							CHANNELS 3 Zrotation Yrotation Xrotation
							JOINT RightHand
							{
								OFFSET -3.444170 -0.000000 -0.000000
								CHANNELS 3 Zrotation Yrotation Xrotation
								JOINT RightFingerBase
								{
									OFFSET 0.000000 0.000000 0.000000
									CHANNELS 3 Zrotation Yrotation Xrotation
									JOINT RightHandIndex1
									{
										OFFSET -0.622530 -0.000000 -0.000000
										CHANNELS 3 Zrotation Yrotation Xrotation
										End Site
										{
											OFFSET 0.000000 0.000000 0.000000
										}
									}
								}
								JOINT RThumb
								{
									OFFSET 0.000000 0.000000 0.000000
									CHANNELS 3 Zrotation Yrotation Xrotation
									End Site
									{
										OFFSET 0.000000 0.000000 0.000000
									}
								}
							}
						}
					}
				}
			}
		}
	}
}
MOTION
Frames: 9
Frame Time: 0.008333
10.359432 17.970051 25.981833 -178.069291 3.789289 178.280599 1.074436 4.420956 2.591444 -18.012856 -20.066024 0.586142 -2.822458 6.687978 20.030797 -4.083971 14.179839 -6.538102 2.679000 -10.156400 -29.484700 -5.065004 -4.256660 0.755659 28.373470 14.935448 4.734220 2.900705 -4.956712 17.872461 5.128937 -21.463867 -13.063517 -0.003400 -0.378100 1.038900 3.193783 1.148010 5.949394 2.777529 1.927112 5.245050 -4.845532 0.637114 -14.049223 -6.988133 -3.186483 -18.727872 11.386619 -4.585750 21.709513 1.514300 -1.375500 7.355700 -1.801366 -9.551547 1.536688 -90.898518 10.394032 31.061081 25.857694 -25.472517 -6.934637 1.388377 0.726392 12.289132 8.194951 -32.665939 -3.914600 -7.125000 0.000000 0.000000 -14.016800 -3.120800 15.211500 0.238117 10.950112 2.943356 89.739827 -10.686898 40.994718 -24.018242 27.109422 -6.895807 0.765293 -0.500834 23.422750 -2.769859 -52.546652 2.918700 7.125000 0.000000 0.000000 68.727700 -72.436800 -50.747800 
10.358271 17.969006 25.982646 -178.068662 3.856938 178.273989 1.076097 4.417895 2.592905 -18.018732 -20.007119 0.543893 -2.810358 6.711697 20.091165 -4.118697 14.274566 -6.497993 2.653800 -10.112400 -29.341500 -5.070056 -4.256454 0.753360 28.378175 14.943149 4.727929 2.908211 -4.939310 17.806648 5.207324 -21.684689 -12.876000 -0.000100 0.073000 -0.200400 3.217207 1.168572 5.978452 2.745273 1.956891 5.280850 -4.860007 0.650606 -14.066609 -6.992228 -3.210854 -18.741175 11.402457 -4.620706 21.693857 1.515900 -1.391400 7.354500 -1.794536 -9.551496 1.537818 -90.881091 10.447580 31.100400 25.896842 -25.513038 -6.950564 1.385942 0.723468 12.309624 8.185514 -32.543656 -3.897600 -7.125000 0.000000 0.000000 -14.013600 -2.997800 15.179000 0.238969 10.946521 2.936764 89.788569 -10.633892 40.844534 -24.013651 27.106715 -6.890872 0.766102 -0.498683 23.423070 -2.647956 -52.507894 2.820700 7.125000 0.000000 0.000000 68.694900 -72.381700 -50.654100 
10.359084 17.968193 25.982878 -178.066019 3.934456 178.242122 1.082588 4.417159 2.605307 -18.022202 -19.891059 0.508396 -2.799736 6.727194 20.141007 -4.119271 14.276069 -6.481421 2.597400 -10.012900 -29.018500 -5.070373 -4.257579 0.760211 28.388570 14.997620 4.764039 2.910785 -4.930390 17.785563 5.204032 -21.666210 -12.837706 -0.000700 0.168800 -0.463800 3.187845 1.196177 5.980135 2.770930 1.986813 5.384922 -4.855351 0.670310 -14.073472 -7.075343 -3.225235 -18.754876 11.499769 -4.644464 21.653272 1.552500 -1.399900 7.347600 -1.789735 -9.556874 1.532607 -90.863367 10.446111 31.175643 25.934647 -25.549041 -6.961223 1.383222 0.717603 12.242172 8.064725 -32.302741 -3.804600 -7.125000 0.000000 0.000000 -14.065500 -2.739600 15.177800 0.231473 10.938701 2.932560 89.802665 -10.660906 40.675283 -24.104802 27.211909 -6.933399 0.762685 -0.498545 23.468329 -2.658833 -52.563869 2.828900 7.125000 0.000000 0.000000 68.855700 -72.402900 -50.824400 
10.359665 17.968890 25.982878 -178.081785 4.012706 178.252045 1.081647 4.408384 2.613540 -18.025103 -19.748140 0.423085 -2.793141 6.740843 20.177607 -4.137237 14.327167 -6.489451 2.772800 -10.317800 -30.012200 -5.068031 -4.253868 0.768167 28.350414 15.020154 4.728775 2.908052 -4.933527 17.796574 5.159000 -21.512613 -12.836162 0.000000 0.006100 -0.016900 3.166553 1.212340 5.942221 2.763044 1.999460 5.495430 -4.847237 0.683217 -14.057343 -7.159865 -3.218189 -18.790465 11.627637 -4.636221 21.554219 1.598600 -1.391100 7.327100 -1.781938 -9.570257 1.527661 -90.864211 10.405871 31.142909 25.967583 -25.586941 -6.975283 1.380490 0.716534 12.264540 8.097188 -32.247967 -3.818600 -7.125000 0.000000 0.000000 -14.043100 -2.689800 15.140300 0.226950 10.930361 2.925158 89.780538 -10.592842 40.589605 -24.146895 27.264291 -6.960227 0.759039 -0.498096 23.520662 -2.580063 -52.815601 2.773200 7.125000 0.000000 0.000000 69.660300 -72.456000 -51.617800 
10.359200 17.968425 25.983226 -178.098182 3.985462 178.251005 1.073867 4.404901 2.623568 -18.017015 -19.696740 0.379141 -2.791091 6.740228 20.176971 -4.116961 14.267860 -6.440699 2.863600 -10.470900 -30.515400 -5.071559 -4.250641 0.773874 28.330025 14.999261 4.663394 2.895580 -4.964282 17.875790 5.164098 -21.532087 -12.865137 -0.000300 -0.114600 0.314900 3.199118 1.189472 5.889799 2.691803 1.964709 5.623221 -4.850832 0.670599 -14.032752 -7.197004 -3.187146 -18.753482 11.739524 -4.602723 21.357399 1.631600 -1.373700 7.267300 -1.765592 -9.590849 1.521501 -90.870567 10.366416 31.032876 25.966355 -25.591833 -6.975713 1.384805 0.714236 12.405865 8.069652 -32.317599 -3.809200 -7.125000 0.000000 0.000000 -14.063400 -2.755200 15.179000 0.229611 10.917880 2.908124 89.765825 -10.452544 40.614401 -24.111665 27.227510 -6.948373 0.756949 -0.499025 23.548097 -2.777460 -52.989107 2.935700 7.125000 0.000000 0.000000 70.064300 -72.579300 -52.130700 
10.357923 17.968657 25.984503 -178.125812 3.899063 178.231063 1.070606 4.404552 2.629065 -18.034969 -19.685288 0.378096 -2.790452 6.732757 20.161903 -4.067816 14.129393 -6.355560 2.816300 -10.391500 -30.254000 -5.070600 -4.249464 0.779791 28.301838 14.962469 4.632372 2.879275 -5.003324 17.995647 5.133804 -21.466371 -13.056648 -0.001700 -0.268300 0.737100 3.182682 1.146346 5.908287 2.663030 1.904019 5.687607 -4.825793 0.646437 -14.051977 -7.154111 -3.167530 -18.726014 11.696011 -4.567979 21.229572 1.612500 -1.363200 7.224200 -1.758494 -9.593423 1.516409 -90.885960 10.361721 30.975155 25.977287 -25.609376 -6.982573 1.392013 0.707270 12.378705 7.774988 -32.357370 -3.643200 -7.125000 0.000000 0.000000 -14.231100 -2.748000 15.369900 0.228778 10.911124 2.901904 89.750212 -10.425456 40.605735 -24.121681 27.242404 -6.956236 0.754285 -0.500184 23.598622 -2.879146 -53.104935 3.019800 7.125000 0.000000 0.000000 70.355400 -72.649800 -52.479700 
10.357110 17.967961 25.986593 -178.188862 3.863678 178.216912 1.072944 4.397923 2.625761 -18.098079 -19.644165 0.364197 -2.789229 6.732167 20.163450 -4.034728 14.041925 -6.322355 2.791200 -10.349100 -30.114800 -5.056769 -4.247482 0.789104 28.195755 14.903881 4.581504 2.861399 -5.036903 18.115376 5.010807 -21.099354 -13.298908 -0.009700 -0.635300 1.745700 3.066686 1.112216 5.981388 2.724259 1.848814 5.693050 -4.762448 0.630462 -14.107213 -7.134436 -3.154591 -18.741654 11.572265 -4.519800 21.193781 1.578600 -1.350900 7.211400 -1.769815 -9.583938 1.510567 -90.977881 10.347619 30.836792 25.957320 -25.590886 -6.974672 1.389700 0.711981 12.388347 7.907334 -32.431646 -3.726800 -7.125000 0.000000 0.000000 -14.161200 -2.842400 15.312100 0.222492 10.912304 2.906517 89.677578 -10.460275 40.560550 -24.119508 27.236560 -6.949234 0.752829 -0.506911 23.841959 -2.975540 -52.974953 3.093000 7.125000 0.000000 0.000000 69.891000 -72.643500 -52.047000 
10.356530 17.965638 25.989612 -178.171286 3.874892 178.283333 1.073639 4.380949 2.614283 -18.037577 -19.591236 0.247844 -2.786128 6.736788 20.167816 -4.015861 13.982032 -6.258639 2.736900 -10.256500 -29.811500 -5.045378 -4.232269 0.784650 28.166592 14.868973 4.416827 2.847283 -5.075774 18.198639 4.963034 -20.938276 -13.277685 -0.010600 -0.665200 1.828100 3.051605 1.099941 5.994535 2.790507 1.832277 5.660006 -4.761775 0.622125 -14.112373 -7.109784 -3.147252 -18.740097 11.477615 -4.486981 21.139962 1.548500 -1.343300 7.193700 -1.783520 -9.583005 1.507625 -91.058265 10.336926 30.661415 25.942636 -25.572974 -6.962223 1.387096 0.712959 12.602839 8.119483 -32.337840 -3.840000 -7.125000 0.000000 0.000000 -14.036900 -2.785000 15.155700 0.219012 10.915374 2.908414 89.648822 -10.483347 40.461040 -24.038791 27.127239 -6.892500 0.748118 -0.525627 24.555303 -3.721372 -52.582081 3.671900 7.125000 0.000000 0.000000 68.213200 -72.780000 -50.679300 
10.357226 17.963781 25.992515 -178.079010 3.920010 178.378141 1.075791 4.361436 2.606563 -17.873201 -19.485665 0.063401 -2.777118 6.749207 20.193722 -3.976391 13.857596 -6.173719 2.699700 -10.192200 -29.601400 -5.043840 -4.212694 0.771651 28.254290 14.903844 4.281918 2.845712 -5.099422 18.216775 5.007058 -21.070978 -13.149689 -0.005800 -0.491300 1.349900 3.115382 1.104510 5.989031 2.825261 1.846017 5.630010 -4.801954 0.621020 -14.099573 -7.061844 -3.141901 -18.739203 11.452570 -4.475998 21.065679 1.532200 -1.338900 7.171600 -1.788942 -9.586215 1.509219 -91.043512 10.346624 30.564273 25.964099 -25.592334 -6.961504 1.394940 0.697690 12.715445 7.761802 -32.081590 -3.609500 -7.125000 0.000000 0.000000 -14.223200 -2.477000 15.295700 0.217279 10.916278 2.905825 89.699144 -10.464364 40.334757 -23.965714 27.031753 -6.844966 0.740176 -0.541636 25.191814 -4.637481 -52.356826 4.385700 7.125000 0.000000 0.000000 66.924700 -73.026800 -49.801100 
